<?xml version="1.0" encoding="UTF-8" standalone="no"?>
<!DOCTYPE svg PUBLIC "-//W3C//DTD SVG 1.1//EN" "http://www.w3.org/Graphics/SVG/1.1/DTD/svg11.dtd">
<svg width="100%" height="100%" viewBox="0 0 30 19" version="1.1" xmlns="http://www.w3.org/2000/svg" xmlns:xlink="http://www.w3.org/1999/xlink" xml:space="preserve" xmlns:serif="http://www.serif.com/" style="fill-rule:evenodd;clip-rule:evenodd;stroke-linecap:round;stroke-linejoin:round;">
    <g transform="matrix(0.866732,0,0,0.866732,7.49271,-1.05773)">
        <path d="M14,12L18,16L22,12" style="fill:none;fill-rule:nonzero;stroke:black;stroke-width:1.38px;"/>
    </g>
    <g transform="matrix(0.866732,0,0,0.866732,7.49271,-1.05773)">
        <path d="M18,16L18,7" style="fill:none;fill-rule:nonzero;stroke:black;stroke-width:1.38px;"/>
    </g>
    <g transform="matrix(0.736233,0,0,0.736233,1.22058,0.505374)">
        <path d="M3.85,8.62C3.787,8.335 3.755,8.045 3.755,7.753C3.755,5.559 5.561,3.753 7.755,3.753C8.049,3.753 8.343,3.786 8.63,3.85C9.364,2.702 10.637,2.005 12,2.005C13.363,2.005 14.636,2.702 15.37,3.85C15.658,3.785 15.952,3.753 16.247,3.753C18.442,3.753 20.247,5.558 20.247,7.753C20.247,8.048 20.215,8.342 20.15,8.63C21.298,9.364 21.995,10.637 21.995,12C21.995,13.363 21.298,14.636 20.15,15.37C20.214,15.657 20.247,15.951 20.247,16.245C20.247,18.439 18.441,20.245 16.247,20.245C15.955,20.245 15.665,20.213 15.38,20.15C14.647,21.303 13.371,22.003 12.005,22.003C10.639,22.003 9.363,21.303 8.63,20.15C8.343,20.214 8.049,20.247 7.755,20.247C5.561,20.247 3.755,18.441 3.755,16.247C3.755,15.955 3.787,15.665 3.85,15.38C2.693,14.648 1.989,13.37 1.989,12C1.989,10.63 2.693,9.352 3.85,8.62Z" style="fill:none;fill-rule:nonzero;stroke:black;stroke-width:1.63px;"/>
    </g>
    <g transform="matrix(0.736233,0,0,0.736233,1.22058,0.505374)">
        <path d="M16,8L10,8C8.903,8 8,8.903 8,10C8,11.097 8.903,12 10,12L14,12C15.097,12 16,12.903 16,14C16,15.097 15.097,16 14,16L8,16" style="fill:none;fill-rule:nonzero;stroke:black;stroke-width:1.63px;"/>
    </g>
    <g transform="matrix(0.736233,0,0,0.736233,1.22058,0.505374)">
        <path d="M12,18L12,6" style="fill:none;fill-rule:nonzero;stroke:black;stroke-width:1.63px;"/>
    </g>
</svg>
